HIERARCHY
ROOT Hips
{
  OFFSET 5.84602e-005 68.8428 3.50346
  CHANNELS 6 Xposition Yposition Zposition Zrotation Xrotation Yrotation
  JOINT Spine
  {
    OFFSET 0 8.597 -4.6522
    CHANNELS 3 Zrotation Xrotation Yrotation
    JOINT Spine1
    {
      OFFSET 0 7.8454 0.4098
      CHANNELS 3 Zrotation Xrotation Yrotation
      JOINT Spine2
      {
        OFFSET 0 9.7078 -2.1609
        CHANNELS 3 Zrotation Xrotation Yrotation
        JOINT Neck
        {
          OFFSET 0 21.8761 -0.4549
          CHANNELS 3 Zrotation Xrotation Yrotation
          JOINT Head
          {
            OFFSET 0 12.3537 3.3602
            CHANNELS 3 Zrotation Xrotation Yrotation
            End Site
            {
              OFFSET 0.0001 18.9506 0.5657
            }
          }
        }
        JOINT LeftShoulder
        {
          OFFSET 2.2086 21.1115 7.2329
          CHANNELS 3 Zrotation Xrotation Yrotation
          JOINT LeftArm
          {
            OFFSET 13.1193 3.0282 -4.8998
            CHANNELS 3 Zrotation Xrotation Yrotation
            JOINT LeftForeArm
            {
              OFFSET 27.4081 -0.0973053 -0.2375
              CHANNELS 3 Zrotation Xrotation Yrotation
              JOINT LeftHand
              {
                OFFSET 22.8641 0.0662994 -0.1369
                CHANNELS 3 Zrotation Xrotation Yrotation
                JOINT LeftHandIndex1
                {
                  OFFSET 8.8614 0.775009 2.4612
                  CHANNELS 3 Zrotation Xrotation Yrotation
                  JOINT LeftHandIndex2
                  {
                    OFFSET 3.3146 -0.808304 0.5841
                    CHANNELS 3 Zrotation Xrotation Yrotation
                    JOINT LeftHandIndex3
                    {
                      OFFSET 2.2628 -0.552002 0.3989
                      CHANNELS 3 Zrotation Xrotation Yrotation
                      End Site
                      {
                        OFFSET 1.6102 -0.4807 0.2612
                      }
                    }
                  }
                }
                JOINT LeftHandMiddle1
                {
                  OFFSET 8.9937 0.895004 0.2143
                  CHANNELS 3 Zrotation Xrotation Yrotation
                  JOINT LeftHandMiddle2
                  {
                    OFFSET 4.0984 0.0113983 -0.0242
                    CHANNELS 3 Zrotation Xrotation Yrotation
                    JOINT LeftHandMiddle3
                    {
                      OFFSET 2.2716 0.00689697 -0.0138001
                      CHANNELS 3 Zrotation Xrotation Yrotation
                      End Site
                      {
                        OFFSET 2.0404 -0.1441 0.0027
                      }
                    }
                  }
                }
                JOINT LeftHandRing1
                {
                  OFFSET 8.5234 0.597198 -2.0164
                  CHANNELS 3 Zrotation Xrotation Yrotation
                  JOINT LeftHandRing2
                  {
                    OFFSET 3.7188 -0.188293 -0.2328
                    CHANNELS 3 Zrotation Xrotation Yrotation
                    JOINT LeftHandRing3
                    {
                      OFFSET 2.1191 -0.106598 -0.1332
                      CHANNELS 3 Zrotation Xrotation Yrotation
                      End Site
                      {
                        OFFSET 1.8737 -0.2304 -0.0886
                      }
                    }
                  }
                }
                JOINT LeftHandPinky1
                {
                  OFFSET 7.9094 -0.601089 -3.4825
                  CHANNELS 3 Zrotation Xrotation Yrotation
                  JOINT LeftHandPinky2
                  {
                    OFFSET 2.2874 -0.477005 -0.6314
                    CHANNELS 3 Zrotation Xrotation Yrotation
                    JOINT LeftHandPinky3
                    {
                      OFFSET 1.6774 -0.349396 -0.4633
                      CHANNELS 3 Zrotation Xrotation Yrotation
                      End Site
                      {
                        OFFSET 1.4888 -0.4091 -0.3416
                      }
                    }
                  }
                }
                JOINT LeftHandThumb1
                {
                  OFFSET 1.833 -1.3875 1.3896
                  CHANNELS 3 Zrotation Xrotation Yrotation
                  JOINT LeftHandThumb2
                  {
                    OFFSET 3.4129 -1.121 2.5732
                    CHANNELS 3 Zrotation Xrotation Yrotation
                    JOINT LeftHandThumb3
                    {
                      OFFSET 2.2474 -0.804199 1.6192
                      CHANNELS 3 Zrotation Xrotation Yrotation
                      End Site
                      {
                        OFFSET 1.6527 -0.5689 1.1317
                      }
                    }
                  }
                }
              }
            }
          }
        }
        JOINT RightShoulder
        {
          OFFSET -2.2086 21.1115 7.2329
          CHANNELS 3 Zrotation Xrotation Yrotation
          JOINT RightArm
          {
            OFFSET -13.1216 3.0287 -4.9007
            CHANNELS 3 Zrotation Xrotation Yrotation
            JOINT RightForeArm
            {
              OFFSET -27.4081 -0.0973053 -0.2375
              CHANNELS 3 Zrotation Xrotation Yrotation
              JOINT RightHand
              {
                OFFSET -22.8641 0.0664063 -0.1369
                CHANNELS 3 Zrotation Xrotation Yrotation
                JOINT RightHandIndex1
                {
                  OFFSET -8.8614 0.774994 2.4612
                  CHANNELS 3 Zrotation Xrotation Yrotation
                  JOINT RightHandIndex2
                  {
                    OFFSET -3.3146 -0.808304 0.5841
                    CHANNELS 3 Zrotation Xrotation Yrotation
                    JOINT RightHandIndex3
                    {
                      OFFSET -2.2628 -0.552002 0.3989
                      CHANNELS 3 Zrotation Xrotation Yrotation
                      End Site
                      {
                        OFFSET -1.6102 -0.4807 0.2612
                      }
                    }
                  }
                }
                JOINT RightHandMiddle1
                {
                  OFFSET -8.9937 0.894989 0.2143
                  CHANNELS 3 Zrotation Xrotation Yrotation
                  JOINT RightHandMiddle2
                  {
                    OFFSET -4.0984 0.0113983 -0.0242
                    CHANNELS 3 Zrotation Xrotation Yrotation
                    JOINT RightHandMiddle3
                    {
                      OFFSET -2.2716 0.00691223 -0.0138001
                      CHANNELS 3 Zrotation Xrotation Yrotation
                      End Site
                      {
                        OFFSET -2.0404 -0.1441 0.0027
                      }
                    }
                  }
                }
                JOINT RightHandRing1
                {
                  OFFSET -8.5234 0.597198 -2.0164
                  CHANNELS 3 Zrotation Xrotation Yrotation
                  JOINT RightHandRing2
                  {
                    OFFSET -3.7188 -0.188309 -0.2328
                    CHANNELS 3 Zrotation Xrotation Yrotation
                    JOINT RightHandRing3
                    {
                      OFFSET -2.1191 -0.106598 -0.1332
                      CHANNELS 3 Zrotation Xrotation Yrotation
                      End Site
                      {
                        OFFSET -1.8737 -0.2304 -0.0886
                      }
                    }
                  }
                }
                JOINT RightHandPinky1
                {
                  OFFSET -7.9094 -0.601105 -3.4825
                  CHANNELS 3 Zrotation Xrotation Yrotation
                  JOINT RightHandPinky2
                  {
                    OFFSET -2.2874 -0.477005 -0.6314
                    CHANNELS 3 Zrotation Xrotation Yrotation
                    JOINT RightHandPinky3
                    {
                      OFFSET -1.6774 -0.349396 -0.4633
                      CHANNELS 3 Zrotation Xrotation Yrotation
                      End Site
                      {
                        OFFSET -1.4888 -0.4091 -0.3416
                      }
                    }
                  }
                }
                JOINT RightHandThumb1
                {
                  OFFSET -1.833 -1.38751 1.3896
                  CHANNELS 3 Zrotation Xrotation Yrotation
                  JOINT RightHandThumb2
                  {
                    OFFSET -3.41299 -1.12099 2.5732
                    CHANNELS 3 Zrotation Xrotation Yrotation
                    JOINT RightHandThumb3
                    {
                      OFFSET -2.24741 -0.804108 1.6192
                      CHANNELS 3 Zrotation Xrotation Yrotation
                      End Site
                      {
                        OFFSET -1.6527 -0.5689 1.1317
                      }
                    }
                  }
                }
              }
            }
          }
        }
      }
    }
  }
  JOINT RightUpLeg
  {
    OFFSET -9.1966 3.8861 -0.7581
    CHANNELS 3 Zrotation Xrotation Yrotation
    JOINT RightLeg
    {
      OFFSET -0.7359 -41.0265 0
      CHANNELS 3 Zrotation Xrotation Yrotation
      JOINT RightFoot
      {
        OFFSET 0 -40.2855 0
        CHANNELS 3 Zrotation Xrotation Yrotation
        JOINT RightToeBase
        {
          OFFSET 0 -5.6122 11.7359
          CHANNELS 3 Zrotation Xrotation Yrotation
          End Site
          {
            OFFSET 0 0 7.8731
          }
        }
      }
    }
  }
  JOINT LeftUpLeg
  {
    OFFSET 9.1965 3.8864 -0.7581
    CHANNELS 3 Zrotation Xrotation Yrotation
    JOINT LeftLeg
    {
      OFFSET 0.7359 -41.0268 0
      CHANNELS 3 Zrotation Xrotation Yrotation
      JOINT LeftFoot
      {
        OFFSET 0 -40.2855 0
        CHANNELS 3 Zrotation Xrotation Yrotation
        JOINT LeftToeBase
        {
          OFFSET 0 -5.6122 11.7359
          CHANNELS 3 Zrotation Xrotation Yrotation
          End Site
          {
            OFFSET 0 0 7.8731
          }
        }
      }
    }
  }
}
MOTION
Frames:	4
Frame Time:	0.0333333
5.84602e-005 68.8428 3.50346 0 0 -0 0 0 -0 0 0 -0 0 0 -0 0 0 -0 0 0 -0 0 0 -0 0 0 -0 0 0 -0 0 0 -0 0 0 -0 0 0 -0 0 0 -0 0 0 -0 -0.0146107 -8.87603e-005 -2.63497e-007 2.99804e-018 -2.42657e-020 -1.42182e-022 0 0 -0 -0.0187562 -0.001176 5.858e-005 5.06224e-018 3.88251e-019 1.21329e-020 0 0 -0 -0.012269 -0.00324817 0.000675346 -1.74678e-018 3.88251e-019 -0 0 0 -0 0 0 -0 0 0 -0 0 0 -0 0 0 -0 0 0 -0 0 0 -0 0 0 -0 0 0 -0 0 0 -0 0 0 -0 0.0149955 -9.10982e-005 2.64101e-007 -9.69331e-018 1.21329e-020 -4.7394e-023 0 0 -0 0.0189956 -0.00119102 -5.96516e-005 -5.41541e-019 0 2.42657e-020 0 0 -0 0.0122698 -0.00324857 -0.000673756 -2.00796e-019 0 -1.94126e-019 0 0 -0 0 0 -0 0 0 -0 3.39842 1.33031 -0.0637918 -5.65207e-008 0.834868 -0.000436188 -3.39935 -2.16518 -0.0642563 -8.89002e-024 -1.18485e-023 -1.48106e-024 -3.39844 1.35642 0.0640283 -3.18788e-007 0.782166 -0.000588827 3.39931 -2.13858 0.0634662 1.1399e-023 0 -0 
-0.000451532 -2.72756 5.83591 -180 -83.3313 -180 -0.102992 5.09206 -0.160289 -0.192765 10.1844 -0.313214 -0.192765 10.1844 -0.313214 -0.067521 19.2678 0.0117777 0.011635 9.62104 0.0117392 -9.6931 6.44383 2.26162 -70.3824 6.16309 -27.4084 -11.8716 -0.508918 -66.5719 -14.6254 23.1051 3.76585 5.74231e-007 1.14165e-007 -6.88188e-009 -2.91093e-006 5.95841e-007 1.92037e-007 -4.77387e-007 2.43648e-007 -2.04559e-007 5.74231e-007 1.14165e-007 -6.88188e-009 -0.0145905 -8.82846e-005 -3.23981e-006 -4.76394e-007 2.4368e-007 -2.04527e-007 5.74231e-007 1.14165e-007 -6.88188e-009 -0.0188053 -0.00117833 5.79182e-005 5.72948e-007 1.14085e-007 -6.86508e-009 5.74231e-007 1.14165e-007 -6.88188e-009 -0.0122962 -0.00325336 0.000677681 -4.76554e-007 2.43894e-007 -2.04565e-007 5.74231e-007 1.14165e-007 -6.88188e-009 -2.91093e-006 5.95841e-007 1.92037e-007 -4.77387e-007 2.43648e-007 -2.04559e-007 9.69871 6.34083 -2.16021 70.3658 6.29741 27.3834 11.9186 -0.569704 66.8901 14.9582 23.6385 -4.47439 -1.02202e-007 3.54335e-007 2.14855e-007 -1.53303e-007 5.31503e-007 3.22282e-007 -1.02202e-007 3.54335e-007 2.14855e-007 -1.02202e-007 3.54335e-007 2.14855e-007 0.0149956 -9.06459e-005 -1.31583e-006 -1.02201e-007 3.54363e-007 2.14809e-007 -1.02202e-007 3.54335e-007 2.14855e-007 0.0189891 -0.0011902 -5.74553e-005 -1.02199e-007 3.54371e-007 2.14797e-007 -1.02202e-007 3.54335e-007 2.14855e-007 0.0122776 -0.00324711 -0.000673614 -1.02197e-007 3.54357e-007 2.1482e-007 -1.02202e-007 3.54335e-007 2.14855e-007 -1.53303e-007 5.31503e-007 3.22282e-007 -1.02202e-007 3.54335e-007 2.14855e-007 5.35832 0.449102 8.0284 -2.76164 13.7131 0.0325846 -3.72308 12.3359 -10.7792 1.73047e-007 9.92007e-009 -1.24499e-007 -5.26795 0.714483 -11.3876 2.00729 13.3947 0.133597 3.33682 12.1783 14.0336 6.89458e-007 -4.09064e-008 -5.01608e-007 
-0.000299984 2.23071 6.29312 -180 -89.9981 -180 -0.0969951 4.86645 -0.148923 -0.182233 9.73311 -0.291128 -0.182234 9.73312 -0.291128 -0.431806 17.6083 0.0742099 0.0758565 8.75655 0.0753954 -9.03027 5.52967 1.75091 -65.3093 5.57915 -25.4809 -10.8863 -0.792764 -61.8063 -13.1199 21.6011 2.06968 -2.66945e-007 -7.01323e-007 4.02649e-007 -8.00835e-007 -2.10397e-006 1.20795e-006 1.59028e-015 -6.36111e-015 -0 -2.66945e-007 -7.01323e-007 4.02649e-007 -0.0146104 -8.9521e-005 -1.34142e-006 4.77083e-015 4.77083e-015 -6.36111e-015 -2.66945e-007 -7.01323e-007 4.02649e-007 -0.018753 -0.00117739 5.86807e-005 1.59028e-015 3.18055e-015 -0 -2.66945e-007 -7.01323e-007 4.02649e-007 -0.0122691 -0.00325058 0.000676148 1.59028e-015 -6.36111e-015 -1.59028e-014 -2.66945e-007 -7.01323e-007 4.02649e-007 -8.00835e-007 -2.10397e-006 1.20795e-006 1.59028e-015 -6.36111e-015 -0 9.29808 5.60117 -1.50176 65.2466 5.67055 25.4877 10.8961 -0.9169 62.0094 13.2289 22.3152 -2.6014 -3.97569e-015 -7.95139e-015 1.27222e-014 3.52597e-006 1.43471e-006 1.88053e-006 2.46829e-006 -8.10436e-007 3.29394e-006 -3.97569e-015 -7.95139e-015 1.27222e-014 0.0149918 -8.8804e-005 -8.08419e-006 7.95139e-016 4.77083e-015 -3.18055e-015 -3.97569e-015 -7.95139e-015 1.27222e-014 0.0189763 -0.00118737 -6.75272e-005 2.47016e-006 -8.10004e-007 3.29404e-006 -3.97569e-015 -7.95139e-015 1.27222e-014 0.0122848 -0.00325394 -0.000684306 -4.77083e-015 6.36111e-015 9.54166e-015 -3.97569e-015 -7.95139e-015 1.27222e-014 3.52597e-006 1.43471e-006 1.88053e-006 2.46829e-006 -8.10436e-007 3.29394e-006 5.20306 0.52066 7.47043 -2.55654 12.7837 0.0216603 -3.89246 11.4011 -9.99225 2.33688e-007 -8.06653e-009 3.56714e-007 -5.12182 0.745717 -10.5987 1.85832 12.5424 0.138825 3.49608 11.4705 12.6791 -1.34346e-006 1.82375e-006 -3.96767e-007 
-0.000299984 2.23071 6.29312 -180 -89.9981 -180 -0.097461 4.98445 -0.14884 -0.182912 9.9691 -0.290793 -0.182912 9.96914 -0.290793 -0.776514 17.298 0.131316 0.13676 8.56855 0.135933 -9.05347 5.08958 1.42069 -64.9249 5.34226 -25.4615 -10.7686 -1.01032 -61.6423 -12.7505 21.6714 0.760086 -2.63638e-007 -7.01681e-007 4.05025e-007 9.54166e-015 2.8625e-014 -6.36111e-015 -2.63638e-007 -7.01681e-007 4.05025e-007 -2.63638e-007 -7.01681e-007 4.05025e-007 -0.0145976 -8.93169e-005 7.95868e-006 -2.63631e-007 -7.01733e-007 4.04936e-007 -2.63638e-007 -7.01681e-007 4.05025e-007 -0.018736 -0.00117162 5.25696e-005 -2.63626e-007 -7.01747e-007 4.04913e-007 -2.63638e-007 -7.01681e-007 4.05025e-007 -0.0122274 -0.00323875 0.00067069 -2.63625e-007 -7.01721e-007 4.04957e-007 -2.63638e-007 -7.01681e-007 4.05025e-007 9.54166e-015 2.8625e-014 -6.36111e-015 -2.63638e-007 -7.01681e-007 4.05025e-007 9.56578 5.31997 -1.02534 64.8144 5.40013 25.4966 10.7509 -1.18582 61.7579 12.6864 22.5823 -1.17618 -2.73612e-007 6.94925e-007 4.10529e-007 6.75796e-008 -1.29465e-006 2.98497e-006 -2.73612e-007 6.94925e-007 4.10529e-007 -2.73612e-007 6.94925e-007 4.10529e-007 0.015004 -9.27922e-005 8.82221e-006 -2.73605e-007 6.94979e-007 4.10438e-007 -2.73612e-007 6.94925e-007 4.10529e-007 0.0190462 -0.00119537 -5.40879e-005 -2.736e-007 6.94993e-007 4.10416e-007 -2.73612e-007 6.94925e-007 4.10529e-007 0.0122411 -0.00324292 -0.000670157 8.03076e-007 2.71419e-007 2.0069e-006 -2.73612e-007 6.94925e-007 4.10529e-007 6.75796e-008 -1.29465e-006 2.98497e-006 -2.73612e-007 6.94925e-007 4.10529e-007 5.20306 0.52066 7.47043 -2.55654 12.7837 0.0216603 -3.89246 11.4011 -9.99225 2.33688e-007 -8.06653e-009 3.56714e-007 -5.12794 0.727478 -10.5987 1.85867 12.5913 0.143779 3.41412 11.6532 12.3684 3.59156e-007 1.94707e-006 -3.78361e-007 
